<?xml version="1.0" encoding="UTF-8" standalone="no"?>
<svg
   xmlns:dc="http://purl.org/dc/elements/1.1/"
   xmlns:cc="http://creativecommons.org/ns#"
   xmlns:rdf="http://www.w3.org/1999/02/22-rdf-syntax-ns#"
   xmlns:svg="http://www.w3.org/2000/svg"
   xmlns="http://www.w3.org/2000/svg"
   xmlns:sodipodi="http://sodipodi.sourceforge.net/DTD/sodipodi-0.dtd"
   xmlns:inkscape="http://www.inkscape.org/namespaces/inkscape"
   width="300"
   height="300"
   viewBox="0 0 300 300"
   version="1.1"
   id="svg16"
   inkscape:version="1.0.2 (e86c8708, 2021-01-15)"
   sodipodi:docname="SpinWheel_Silverfin.svg">
  <defs
     id="defs10" />
  <sodipodi:namedview
     id="base"
     pagecolor="#ffffff"
     bordercolor="#666666"
     borderopacity="1.0"
     inkscape:pageopacity="0.0"
     inkscape:pageshadow="2"
     inkscape:zoom="1.4"
     inkscape:cx="124.41763"
     inkscape:cy="176.06353"
     inkscape:document-units="px"
     inkscape:current-layer="layer4"
     inkscape:document-rotation="0"
     showgrid="false"
     units="px"
     inkscape:window-width="1920"
     inkscape:window-height="1035"
     inkscape:window-x="0"
     inkscape:window-y="23"
     inkscape:window-maximized="0">
    <inkscape:grid
       type="xygrid"
       id="grid1924" />
  </sodipodi:namedview>
  <metadata
     id="metadata13">
    <rdf:RDF>
      <cc:Work
         rdf:about="">
        <dc:format>image/svg+xml</dc:format>
        <dc:type
           rdf:resource="http://purl.org/dc/dcmitype/StillImage" />
        <dc:title></dc:title>
      </cc:Work>
    </rdf:RDF>
  </metadata>
  <g
     inkscape:label="Cirkel"
     inkscape:groupmode="layer"
     id="layer1"
     style="display:inline">
    <circle
       style="fill:#f9f9f9;fill-rule:evenodd;stroke-width:0.5"
       id="path18"
       cx="150"
       cy="150"
       r="150" />
  </g>
  <g
     inkscape:groupmode="layer"
     id="layer4"
     inkscape:label="Slices"
     style="display:inline">
    <path
       style="fill:#b3b3b3;stroke:#122b3f;stroke-width:1px;stroke-linecap:butt;stroke-linejoin:miter;stroke-opacity:1"
       d="M 150,150 V 300 Z"
       id="path1926" />
    <path
       style="fill:#b3b3b3;stroke:#122b3f;stroke-width:1px;stroke-linecap:butt;stroke-linejoin:miter;stroke-opacity:1"
       d="M 150,150 H 300 Z"
       id="path1928" />
    <path
       style="fill:#b3b3b3;stroke:#122b3f;stroke-width:1px;stroke-linecap:butt;stroke-linejoin:miter;stroke-opacity:1"
       d="M 150,150 H 0 Z"
       id="path1930" />
    <path
       style="fill:#b3b3b3;stroke:#122b3f;stroke-width:1px;stroke-linecap:butt;stroke-linejoin:miter;stroke-opacity:1"
       d="M 150,150 V 0 Z"
       id="path1932" />
  </g>
  <g
     inkscape:groupmode="layer"
     id="layer3"
     inkscape:label="CenterCirkle">
    <circle
       style="fill:#122b3f;fill-opacity:1;fill-rule:evenodd;stroke-width:1.17999"
       id="path220"
       cx="150"
       cy="150"
       r="40" />
  </g>
  <g
     inkscape:groupmode="layer"
     id="layer2"
     inkscape:label="Silverfin_logo"
     style="display:inline">
    <g
       id="g1745"
       transform="matrix(0.00617649,0,0,-0.00617649,123,176.26302)">
      <path
         d="M 8904.73,0 H 0 V 8623.51 H 8904.73 V 0"
         style="fill:#122b3f;fill-opacity:1;fill-rule:nonzero;stroke:none"
         id="path1747" />
      <path
         d="m 2396.68,1623.51 h 202.77 v 794.31 h -202.77 v -794.31"
         style="fill:#ffffff;fill-opacity:1;fill-rule:nonzero;stroke:none"
         id="path1749" />
      <path
         d="M 2797.63,1623.51 H 3000.4 V 2812.28 H 2797.63 V 1623.51"
         style="fill:#ffffff;fill-opacity:1;fill-rule:nonzero;stroke:none"
         id="path1751" />
      <path
         d="m 3533.31,1871.46 -175.74,547.9 -212.94,-1.69 285.16,-792.7 h 199.38 l 282.42,794.31 h -206.34 l -171.94,-547.82"
         style="fill:#ffffff;fill-opacity:1;fill-rule:nonzero;stroke:none"
         id="path1753" />
      <path
         d="m 4529.91,2094.73 h -340.15 c 9.04,45.73 27.88,82.59 56.11,109.73 31.65,30.42 69.95,45.2 117.09,45.2 50.55,0 89.84,-14.93 120.13,-45.63 27.05,-27.46 42.77,-64.18 46.82,-109.3 z m 99.69,219.08 c -60,72.8 -150.16,109.72 -267.98,109.72 -72.57,0 -138.34,-17.29 -195.52,-51.4 -57.21,-34.14 -102.35,-82.53 -134.15,-143.83 -31.62,-60.94 -47.64,-131.53 -47.64,-209.79 0,-78.26 15.79,-148.59 46.95,-209.02 31.36,-60.88 76.55,-108.83 134.32,-142.5 57.53,-33.6 124.84,-50.62 200.04,-50.62 63.97,0 123.18,11.97 175.99,35.59 52.9,23.68 98.38,57.71 135.19,101.14 l 8.3,9.78 -112.82,126.18 -11.01,-12.21 c -23.36,-25.97 -51.06,-46.14 -82.32,-59.99 -31.25,-13.88 -64.45,-20.9 -98.67,-20.9 -49.24,0 -89.48,14.03 -123,42.89 -29.35,25.24 -50.21,59.5 -62.15,102.02 h 521.48 l 0.97,13.71 c 0.91,12.88 1.38,32 1.38,56.79 0,128.7 -30.06,230.47 -89.35,302.44 h -0.01"
         style="fill:#ffffff;fill-opacity:1;fill-rule:nonzero;stroke:none"
         id="path1755" />
      <path
         d="m 5170.19,2381.93 c -29.11,-18.48 -54.32,-42.63 -75.34,-72.13 v 108.02 h -202.78 v -794.31 h 202.78 V 1993 c 0,66.91 8.09,125.5 61.35,178.57 49.32,49.15 97.24,62.13 165.57,61.64 l 15.69,-0.14 v 185.66 l -15,0.21 c -57.6,-1.01 -108.83,-9.46 -152.27,-37.01"
         style="fill:#ffffff;fill-opacity:1;fill-rule:nonzero;stroke:none"
         id="path1757" />
      <path
         d="m 5569.69,2512.62 v -93.68 h -107.31 v -184.71 h 107.31 v -614.75 h 219.43 v 614.75 h 181.76 v 184.71 h -181.76 v 69.22 c 0,90.06 63.86,121.3 112.98,121.3 l 68.78,1.39 v 201.43 H 5862.8 c -178.48,0 -293.11,-117.9 -293.11,-299.66"
         style="fill:#ffffff;fill-opacity:1;fill-rule:nonzero;stroke:none"
         id="path1759" />
      <path
         d="m 7215.48,2340.68 v 0.01 c -49.81,55.92 -118.55,84.26 -204.52,84.26 -106.58,-1.67 -187.4,-39.37 -240.97,-112.19 v 105.06 h -202.77 v -794.31 h 202.77 v 390.72 c 0,60.07 15.7,109.86 46.69,147.95 30.72,37.76 71.75,56.56 125.2,57.45 44.95,0 79.33,-13.64 105.09,-41.69 25.75,-28.02 38.78,-67.23 38.78,-116.54 v -437.89 h 204.11 v 492.23 c 0,93.81 -25.02,169.51 -74.38,224.94"
         style="fill:#ffffff;fill-opacity:1;fill-rule:nonzero;stroke:none"
         id="path1761" />
      <path
         d="m 1997.75,2098.86 -107.21,22.96 c -41.34,7.67 -68.91,30.63 -68.91,67.39 0,42.88 42.88,75.05 96.48,75.05 85.77,0 117.94,-56.67 124.06,-101.07 l 170,38.28 c -9.19,81.17 -81.17,217.47 -295.59,217.47 -162.34,0 -281.79,-111.79 -281.79,-246.57 0,-105.68 65.84,-192.97 211.34,-225.14 l 99.55,-22.97 c 58.2,-12.25 81.18,-39.81 81.18,-73.51 0,-39.82 -32.17,-75.05 -99.56,-75.05 -88.83,0 -133.24,55.13 -137.84,114.87 l -174.6,-38.3 c 9.19,-85.76 87.31,-232.79 313.98,-232.79 197.56,0 292.52,125.58 292.52,248.11 0,110.27 -75.04,200.64 -223.61,231.27"
         style="fill:#ffffff;fill-opacity:1;fill-rule:nonzero;stroke:none"
         id="path1763" />
      <path
         d="m 2496.43,2812.28 c -67.24,0 -121.75,-54.51 -121.75,-121.76 0,-67.24 54.51,-121.75 121.75,-121.75 67.24,0 121.75,54.51 121.75,121.75 0,67.25 -54.51,121.76 -121.75,121.76"
         style="fill:#ffffff;fill-opacity:1;fill-rule:nonzero;stroke:none"
         id="path1765" />
      <path
         d="m 6165.19,1623.51 h 202.77 v 794.31 h -202.77 v -794.31"
         style="fill:#ffffff;fill-opacity:1;fill-rule:nonzero;stroke:none"
         id="path1767" />
      <path
         d="m 6266.57,2812.28 c -67.23,0 -121.74,-54.51 -121.74,-121.76 0,-67.24 54.51,-121.75 121.74,-121.75 67.25,0 121.76,54.51 121.76,121.75 0,67.25 -54.51,121.76 -121.76,121.76"
         style="fill:#ffffff;fill-opacity:1;fill-rule:nonzero;stroke:none"
         id="path1769" />
      <path
         d="m 4437.31,5646.63 0.02,0.01 c -114.4,3.91 -221.78,66.58 -282.68,163.5 0.26,0.06 0.52,0.14 0.78,0.21 -51.26,81.91 -66,183.72 -40.29,276.83 20.66,74.86 66.86,141.63 129.35,187.7 65.45,48.26 146.97,72.11 228.11,66.86 92.52,-5.97 179.96,-50.02 240.41,-120.18 64.18,-74.51 93.67,-173.85 81.37,-271.31 226.75,-58.97 430.97,-174.43 596.43,-330.62 47.55,119.07 71.95,246.89 71.95,375.08 h 0.85 c 0,127.62 -24.2,255.03 -71.42,373.6 -45.54,114.36 -112.15,220.09 -195.34,310.79 -92.34,100.67 -204.91,182.71 -329.27,239.29 -138.51,63 -290.43,93.59 -442.48,89.97 -122.05,-2.91 -243.31,-27.91 -356.42,-73.88 -102.44,-41.63 -197.85,-100.18 -281.52,-172.45 -83.29,-71.93 -154.83,-157.33 -210.95,-252 -57.3,-96.67 -98.31,-202.83 -120.7,-312.96 -26.15,-128.57 -27.06,-262.23 -2.69,-391.14 27.84,-147.25 88.99,-287.53 177.38,-408.5 21.17,-28.97 43.86,-56.82 67.97,-83.39 187.38,206.21 453.07,329.21 739.14,332.59"
         style="fill:#97dcd1;fill-opacity:1;fill-rule:nonzero;stroke:none"
         id="path1771" />
      <path
         d="m 5463.32,4657.21 c -3.29,137.05 -34.59,273 -91.86,397.56 -14.08,30.61 -29.68,60.51 -46.73,89.56 -35.47,60.42 -76.97,116.87 -123.74,168.49 -177.19,-194.8 -429.77,-320.21 -710.5,-331.58 -1.7,-0.07 -3.4,-0.15 -5.1,-0.21 -6.6,-0.22 -13.21,-0.38 -19.84,-0.48 -1.79,-0.03 -4.14,-0.08 -5.94,-0.1 119.44,-4.01 225.36,-68.7 284.95,-163.96 -0.16,-0.04 -0.32,-0.09 -0.48,-0.13 51.28,-82.11 65.76,-184.19 39.76,-277.37 -21.08,-75.57 -68.18,-142.8 -131.74,-188.74 -66.64,-48.19 -149.55,-71.28 -231.51,-64.44 -87.5,7.32 -170.12,48.52 -228.94,113.64 -65.03,71.98 -97.39,169.62 -88.21,266.21 -227.73,59.29 -432.68,175.58 -598.49,332.87 -44.12,-113.57 -69.12,-236.96 -69.12,-365.98 h -0.15 c 0,-124.36 22.48,-248.57 67.32,-364.58 43.09,-111.47 106.14,-215.02 185.14,-304.7 75.6,-85.84 165.65,-158.86 265.35,-214.96 102.14,-57.46 214.14,-96.94 329.76,-116.08 120.22,-19.9 243.67,-18.3 363.22,5.33 112.51,22.25 220.99,63.92 319.57,122.53 97.29,57.84 184.74,131.99 257.83,218.41 77.42,91.51 138.52,196.66 179.37,309.36 42.78,118 63.09,243.9 60.08,369.35"
         style="fill:#ffffff;fill-opacity:1;fill-rule:nonzero;stroke:none"
         id="path1773" />
      <path
         d="m 5200.1,5313.82 c -0.01,-0.01 -0.01,-0.01 -0.01,0 -191.36,211.43 -459.97,334.95 -745.54,332.89 l -0.14,0.07 c -5.71,0.02 -11.4,-0.08 -17.1,-0.15 -286.07,-3.38 -551.76,-126.38 -739.14,-332.59 l -0.01,-0.02 0.85,-0.92 c 190.47,-209.49 466.67,-332.75 749.62,-332.75 l 0.48,-0.01 c 5.51,0 10.97,0.13 16.44,0.21 6.63,0.1 13.24,0.26 19.84,0.48 1.7,0.06 3.4,0.14 5.1,0.21 280.73,11.37 533.31,136.78 710.5,331.58 -0.29,0.34 -0.9,0.99 -0.89,1"
         style="fill:#55c7dc;fill-opacity:1;fill-rule:nonzero;stroke:none"
         id="path1775" />
      <path
         d="m 2397.67,1622.88 h 202.74 v 794.15 h -202.74 v -794.15"
         style="fill:#ffffff;fill-opacity:1;fill-rule:nonzero;stroke:none"
         id="path1777" />
      <path
         d="m 2798.54,1622.88 h 202.73 V 2811.41 H 2798.54 V 1622.88"
         style="fill:#ffffff;fill-opacity:1;fill-rule:nonzero;stroke:none"
         id="path1779" />
      <path
         d="m 3534.07,1870.78 -175.71,547.79 -212.89,-1.69 285.1,-792.54 h 199.34 l 282.37,794.15 h -206.31 l -171.9,-547.71"
         style="fill:#ffffff;fill-opacity:1;fill-rule:nonzero;stroke:none"
         id="path1781" />
      <path
         d="m 4530.47,2094.01 h -340.08 c 9.04,45.72 27.87,82.57 56.1,109.7 31.64,30.41 69.93,45.19 117.06,45.19 50.54,0 89.83,-14.92 120.11,-45.62 27.03,-27.46 42.76,-64.17 46.81,-109.27 z m 99.67,219.03 c -59.99,72.78 -150.13,109.7 -267.92,109.7 -72.56,0 -138.31,-17.29 -195.48,-51.39 -57.21,-34.13 -102.33,-82.51 -134.13,-143.8 -31.61,-60.94 -47.64,-131.5 -47.64,-209.74 0,-78.26 15.8,-148.57 46.95,-209 31.35,-60.86 76.54,-108.8 134.28,-142.47 57.53,-33.57 124.83,-50.6 200.01,-50.6 63.97,0 123.16,11.98 175.96,35.58 52.88,23.68 98.36,57.71 135.16,101.12 l 8.3,9.79 -112.81,126.14 -10.99,-12.2 c -23.36,-25.96 -51.06,-46.14 -82.32,-59.98 -31.24,-13.87 -64.42,-20.89 -98.64,-20.89 -49.23,0 -89.46,14.02 -122.99,42.89 -29.33,25.21 -50.18,59.48 -62.13,101.99 h 521.38 l 0.97,13.71 c 0.91,12.87 1.37,31.98 1.37,56.78 0,128.67 -30.04,230.41 -89.32,302.37 h -0.01"
         style="fill:#ffffff;fill-opacity:1;fill-rule:nonzero;stroke:none"
         id="path1783" />
      <path
         d="m 5170.62,2381.15 c -29.11,-18.48 -54.31,-42.63 -75.33,-72.12 v 108 h -202.73 v -794.15 h 202.73 v 369.42 c 0,66.88 8.1,125.47 61.34,178.52 49.31,49.14 97.22,62.13 165.53,61.63 l 15.69,-0.13 v 185.62 l -15,0.21 c -57.58,-1.01 -108.8,-9.46 -152.23,-37"
         style="fill:#ffffff;fill-opacity:1;fill-rule:nonzero;stroke:none"
         id="path1785" />
      <path
         d="m 5570.04,2511.81 v -93.66 h -107.28 v -184.67 h 107.28 v -614.63 h 219.39 v 614.63 h 181.71 v 184.67 h -181.71 v 69.21 c 0,90.04 63.84,121.27 112.95,121.27 l 68.76,1.39 v 201.39 h -108.05 c -178.45,0 -293.05,-117.88 -293.05,-299.6"
         style="fill:#ffffff;fill-opacity:1;fill-rule:nonzero;stroke:none"
         id="path1787" />
      <path
         d="m 7215.5,2339.91 v 0.01 c -49.81,55.89 -118.53,84.24 -204.48,84.24 -106.57,-1.68 -187.37,-39.36 -240.92,-112.17 v 105.04 h -202.75 v -794.15 h 202.75 v 390.64 c 0,60.06 15.7,109.83 46.68,147.93 30.71,37.75 71.73,56.54 125.16,57.43 44.95,0 79.33,-13.63 105.08,-41.68 25.74,-28.02 38.78,-67.23 38.78,-116.51 v -437.81 h 204.06 V 2115 c 0,93.8 -25.02,169.48 -74.36,224.91"
         style="fill:#ffffff;fill-opacity:1;fill-rule:nonzero;stroke:none"
         id="path1789" />
      <path
         d="m 1998.82,2098.13 -107.19,22.97 c -41.33,7.65 -68.89,30.62 -68.89,67.37 0,42.87 42.87,75.04 96.46,75.04 85.74,0 117.91,-56.67 124.03,-101.07 l 169.96,38.28 c -9.18,81.16 -81.15,217.43 -295.51,217.43 -162.32,0 -281.75,-111.77 -281.75,-246.52 0,-105.66 65.83,-192.94 211.31,-225.09 l 99.52,-22.97 c 58.18,-12.25 81.16,-39.81 81.16,-73.5 0,-39.81 -32.16,-75.04 -99.54,-75.04 -88.81,0 -133.2,55.13 -137.8,114.86 l -174.56,-38.29 c 9.18,-85.76 87.28,-232.75 313.9,-232.75 197.52,0 292.46,125.56 292.46,248.06 0,110.25 -75.03,200.59 -223.56,231.22"
         style="fill:#ffffff;fill-opacity:1;fill-rule:nonzero;stroke:none"
         id="path1791" />
      <path
         d="m 2497.4,2811.41 c -67.22,0 -121.72,-54.5 -121.72,-121.73 0,-67.23 54.5,-121.73 121.72,-121.73 67.23,0 121.73,54.5 121.73,121.73 0,67.23 -54.5,121.73 -121.73,121.73"
         style="fill:#ffffff;fill-opacity:1;fill-rule:nonzero;stroke:none"
         id="path1793" />
      <path
         d="m 6165.41,1622.88 h 202.74 v 794.15 h -202.74 v -794.15"
         style="fill:#ffffff;fill-opacity:1;fill-rule:nonzero;stroke:none"
         id="path1795" />
      <path
         d="m 6266.78,2811.41 c -67.23,0 -121.73,-54.5 -121.73,-121.73 0,-67.23 54.5,-121.73 121.73,-121.73 67.23,0 121.73,54.5 121.73,121.73 0,67.23 -54.5,121.73 -121.73,121.73"
         style="fill:#ffffff;fill-opacity:1;fill-rule:nonzero;stroke:none"
         id="path1797" />
    </g>
  </g>
</svg>
